Coordinates
version=1
nRows=14
nColumns=40
inDegrees=yes

Units are S.I. units (second, meters, Newtons, ...)
If the header above contains a line with 'inDegrees', this indicates whether rotational values are in degrees (yes) or radians (no).

endheader
time	pelvis_tilt	pelvis_list	pelvis_rotation	pelvis_tx	pelvis_ty	pelvis_tz	hip_flexion_r	hip_adduction_r	hip_rotation_r	knee_angle_r	knee_angle_r_beta	ankle_angle_r	subtalar_angle_r	mtp_angle_r	hip_flexion_l	hip_adduction_l	hip_rotation_l	knee_angle_l	knee_angle_l_beta	ankle_angle_l	subtalar_angle_l	mtp_angle_l	lumbar_extension	lumbar_bending	lumbar_rotation	arm_flex_r	arm_add_r	arm_rot_r	elbow_flex_r	pro_sup_r	wrist_flex_r	wrist_dev_r	arm_flex_l	arm_add_l	arm_rot_l	elbow_flex_l	pro_sup_l	wrist_flex_l	wrist_dev_l
      0.00000000	      0.79006743	      2.34642926	      2.87079321	     -0.72724562	      0.93808689	      0.21401057	     24.45726205	     -9.89693369	    -14.99643897	     36.37902780	      0.63493381	     -1.69368228	    -11.74493091	      0.00000000	     -6.78393807	      2.57485726	    -16.99948624	     10.63961207	      0.18569626	      7.05558916	      7.60867755	      0.00000000	     -4.18897235	     -1.72631671	     -2.06648809	     43.68759144	    -16.09150034	     43.68759144	     75.59390459	     44.91026794	      0.00000000	      0.00000000	     43.68759144	    -16.09150034	     43.68759144	     75.59390459	     44.91026794	      0.00000000	      0.00000000
      0.00500000	      0.56118401	      2.75754070	      3.07802931	     -0.72110116	      0.93684967	      0.21375663	     24.90070021	    -10.35431233	    -15.15262810	     34.88111038	      0.60879022	     -1.75077213	    -11.51202137	      0.00000000	     -6.96737981	      2.98683908	    -16.85749255	     10.68848808	      0.18654931	      7.27684991	      7.79956439	      0.00000000	     -3.91271110	     -2.09765340	     -1.84622236	     43.68839287	    -16.09039877	     43.68839287	     75.59273093	     44.91075965	      0.00000000	      0.00000000	     43.68839287	    -16.09039877	     43.68839287	     75.59273093	     44.91075965	      0.00000000	      0.00000000
      0.01000000	      0.63503179	      2.68679562	      3.19200259	     -0.71477603	      0.93644702	      0.21379016	     24.72892891	    -10.10146077	    -15.29025728	     32.72426499	      0.57114617	     -2.18768209	    -11.33541657	      0.00000000	     -7.56388191	      2.86039118	    -16.74792565	     10.52892367	      0.18376438	      7.40833417	      8.11411892	      0.00000000	     -4.12044502	     -1.98019567	     -1.98375316	     43.69475435	    -16.08167052	     43.69475435	     75.58347258	     44.91457610	      0.00000000	      0.00000000	     43.69475435	    -16.08167052	     43.69475435	     75.58347258	     44.91457610	      0.00000000	      0.00000000
      0.01500000	      0.30396821	      2.99330178	      3.29859680	     -0.70827437	      0.93472330	      0.21385286	     25.42736141	    -10.49021500	    -15.66619678	     31.48338615	      0.54948875	     -2.17379407	    -11.17418332	      0.00000000	     -7.69637357	      3.16186728	    -16.79917539	     10.49125988	      0.18310703	      7.57461312	      8.18617974	      0.00000000	     -3.67923864	     -2.26505309	     -1.81605840	     43.69524475	    -16.08099886	     43.69524475	     75.58276306	     44.91486433	      0.00000000	      0.00000000	     43.69524475	    -16.08099886	     43.69524475	     75.58276306	     44.91486433	      0.00000000	      0.00000000
      0.02000000	      0.17759219	      3.29275375	      3.38983248	     -0.70177706	      0.93368556	      0.21399491	     25.56436975	    -10.63264624	    -15.46254903	     29.48078747	      0.51453681	     -2.41573527	    -10.51210271	      0.00000000	     -8.07434749	      3.44156290	    -16.72279714	     10.41970329	      0.18185813	      7.77849666	      8.49980996	      0.00000000	     -3.60458370	     -2.53508817	     -1.69940932	     43.69781573	    -16.07747988	     43.69781573	     75.57905215	     44.91636188	      0.00000000	      0.00000000	     43.69781573	    -16.07747988	     43.69781573	     75.57905215	     44.91636188	      0.00000000	      0.00000000
      0.02500000	     -0.06991869	      3.57196387	      3.51138919	     -0.69517833	      0.93220346	      0.21404818	     25.97379363	    -10.87954318	    -15.59623897	     27.82579418	      0.48565173	     -2.58800810	    -10.12118131	      0.00000000	     -8.32895911	      3.70695298	    -16.66868241	     10.34360073	      0.18052989	      7.97054517	      8.74767975	      0.00000000	     -3.36618222	     -2.77166156	     -1.56555338	     43.69970602	    -16.07489545	     43.69970602	     75.57633410	     44.91744812	      0.00000000	      0.00000000	     43.69970602	    -16.07489545	     43.69970602	     75.57633410	     44.91744812	      0.00000000	      0.00000000
      0.03000000	     -0.15666620	      3.66203801	      3.55798672	     -0.68847497	      0.93115376	      0.21438568	     26.03146997	    -10.78755391	    -15.65219679	     25.81992669	      0.45064273	     -2.83429594	     -9.70486984	      0.00000000	     -8.80038503	      3.74556039	    -16.70833265	     10.16904264	      0.17748328	      8.02769669	      9.14789464	      0.00000000	     -3.26759302	     -2.85474488	     -1.50934633	     43.70448840	    -16.06836776	     43.70448840	     75.56949666	     44.92014065	      0.00000000	      0.00000000	     43.70448840	    -16.06836776	     43.70448840	     75.56949666	     44.92014065	      0.00000000	      0.00000000
      0.03500000	     -0.49699285	      4.04438230	      3.68439696	     -0.68179856	      0.92933264	      0.21443797	     26.62179588	    -11.19708668	    -15.82041246	     24.39213932	      0.42572314	     -2.95540026	     -9.21249004	      0.00000000	     -8.96113732	      4.12460302	    -16.68808992	     10.11942205	      0.17661723	      8.27273549	      9.35514953	      0.00000000	     -2.89265133	     -3.15529904	     -1.31295524	     43.70611050	    -16.06615739	     43.70611050	     75.56719070	     44.92103559	      0.00000000	      0.00000000	     43.70611050	    -16.06615739	     43.70611050	     75.56719070	     44.92103559	      0.00000000	      0.00000000
      0.04000000	     -0.80884653	      4.29839658	      3.71570678	     -0.67502934	      0.92746793	      0.21484371	     27.33031316	    -11.49067232	    -16.32321382	     23.31522252	      0.40692740	     -2.87202411	     -8.97089452	      0.00000000	     -9.17038180	      4.35590624	    -16.84222716	     10.02208461	      0.17491837	      8.39506776	      9.44954149	      0.00000000	     -2.50700828	     -3.42933041	     -1.14124197	     43.70655088	    -16.06555765	     43.70655088	     75.56656588	     44.92127696	      0.00000000	      0.00000000	     43.70655088	    -16.06555765	     43.70655088	     75.56656588	     44.92127696	      0.00000000	      0.00000000
      0.04500000	     -1.08427909	      4.73640697	      3.78129502	     -0.66830635	      0.92586527	      0.21515476	     27.62398492	    -11.80369704	    -16.10140322	     21.45651735	      0.37448687	     -2.95312302	     -7.70711414	      0.00000000	     -9.44254708	      4.78105025	    -16.80322118	      9.91094144	      0.17297856	      8.57385688	      9.93809258	      0.00000000	     -2.20410047	     -3.83153283	     -0.86438927	     43.70818429	    -16.06333419	     43.70818429	     75.56425214	     44.92216670	      0.00000000	      0.00000000	     43.70818429	    -16.06333419	     43.70818429	     75.56425214	     44.92216670	      0.00000000	      0.00000000
      0.05000000	     -1.28195037	      4.99334984	      3.76993562	     -0.66147973	      0.92436403	      0.21574974	     27.93466444	    -11.94765681	    -16.26970059	     19.86970510	      0.34679178	     -2.87686511	     -6.72837168	      0.00000000	     -9.81828452	      4.99416674	    -16.99560024	      9.73876868	      0.16997358	      8.64791301	     10.36229308	      0.00000000	     -1.96080455	     -4.08807166	     -0.62510028	     43.71034749	    -16.06039239	     43.71034749	     75.56119815	     44.92333102	      0.00000000	      0.00000000	     43.71034749	    -16.06039239	     43.71034749	     75.56119815	     44.92333102	      0.00000000	      0.00000000
      0.05500000	     -1.60979499	      5.28817507	      3.83624430	     -0.65471151	      0.92250497	      0.21612603	     28.46571610	    -12.20555082	    -16.47884927	     18.53493614	      0.32349566	     -2.84992120	     -5.86886503	      0.00000000	    -10.01602652	      5.25633082	    -17.02097571	      9.63645195	      0.16818781	      8.75489807	     10.71286875	      0.00000000	     -1.58712041	     -4.34090673	     -0.40201865	     43.71160089	    -16.05868929	     43.71160089	     75.55943369	     44.92399880	      0.00000000	      0.00000000	     43.71160089	    -16.05868929	     43.71160089	     75.55943369	     44.92399880	      0.00000000	      0.00000000
      0.06000000	     -1.75796012	      5.49417213	      3.79094211	     -0.64784869	      0.92110739	      0.21688755	     28.70662031	    -12.27749701	    -16.71520548	     17.05488057	      0.29766382	     -2.64370436	     -4.54805351	      0.00000000	    -10.42511571	      5.38937050	    -17.28832630	      9.49390095	      0.16569983	      8.77740521	     11.24891658	      0.00000000	     -1.42597712	     -4.53662588	     -0.09872833	     43.71480816	    -16.05433650	     43.71480816	     75.55493717	     44.92568256	      0.00000000	      0.00000000	     43.71480816	    -16.05433650	     43.71480816	     75.55493717	     44.92568256	      0.00000000	      0.00000000
      0.06500000	     -2.09958881	      5.80467948	      3.85183189	     -0.64106682	      0.91916426	      0.21731288	     29.26317347	    -12.55061950	    -16.93125964	     15.84243418	      0.27650264	     -2.56934438	     -3.54075363	      0.00000000	    -10.61146561	      5.66233822	    -17.33086862	      9.40868177	      0.16421248	      8.91754269	     11.58520760	      0.00000000	     -1.01774137	     -4.79727859	      0.14080913	     43.71606406	    -16.05263387	     43.71606406	     75.55318286	     44.92633341	      0.00000000	      0.00000000	     43.71606406	    -16.05263387	     43.71606406	     75.55318286	     44.92633341	      0.00000000	      0.00000000
